<?xml version="1.0" encoding="UTF-8"?> <svg xmlns="http://www.w3.org/2000/svg" width="220" height="159" viewBox="0 0 220 159" fill="none"><mask id="mask0_282_145" style="mask-type:alpha" maskUnits="userSpaceOnUse" x="0" y="0" width="220" height="159"><rect width="220" height="158.161" fill="#D9D9D9"></rect></mask><g mask="url(#mask0_282_145)"><path d="M18.6378 58.8779H29.7522C52.5935 58.8779 69.8922 79.1928 65.9249 101.315L45.7673 212.96H-9.16272L18.6378 58.8779Z" fill="white"></path><path d="M84.4893 60.7466H95.4647C118.021 60.7466 135.103 81.0613 131.185 103.184L111.28 214.829H57.0363L84.4893 60.7466Z" fill="##15ade4"></path><path d="M191.859 60.7466H204.566L176.918 214.829H122.29L142.627 101.577C146.862 77.9624 167.634 60.7466 191.888 60.7466H191.859Z" fill="#F28122"></path><path d="M47.5793 56.0775C62.726 56.0775 75.0046 44.1619 75.0046 29.4633C75.0046 14.7647 62.726 2.84912 47.5793 2.84912C32.4327 2.84912 20.1539 14.7647 20.1539 29.4633C20.1539 44.1619 32.4327 56.0775 47.5793 56.0775Z" fill="white"></path><path d="M114.724 56.0775C129.871 56.0775 142.149 44.1619 142.149 29.4633C142.149 14.7647 129.871 2.84912 114.724 2.84912C99.5774 2.84912 87.2987 14.7647 87.2987 29.4633C87.2987 44.1619 99.5774 56.0775 114.724 56.0775Z" fill="white"></path><path d="M180.451 56.0775C195.336 56.0775 207.403 44.1619 207.403 29.4633C207.403 14.7647 195.336 2.84912 180.451 2.84912C165.565 2.84912 153.498 14.7647 153.498 29.4633C153.498 44.1619 165.565 56.0775 180.451 56.0775Z" fill="white"></path></g></svg> 