<?xml version="1.0" encoding="UTF-8"?> <svg xmlns="http://www.w3.org/2000/svg" width="650" height="200" viewBox="0 0 650 200" fill="none"><path d="M72.5331 55.6466C97.2917 55.6466 113.01 63.5533 120.551 78.5255C125.781 88.919 118.225 101.185 106.588 101.185H85.3915C84.4919 94.7923 79.7523 90.7987 71.3994 90.7987C63.9535 90.7987 58.7604 93.1978 58.0802 97.1914C57.4 101.185 61.9202 104.652 80.6519 111.308C109.09 121.431 121.048 132.614 117.216 156.846C113.156 181.349 88.5513 199.993 53.1212 199.993C34.0384 199.993 19.7757 194.419 8.54103 185.094C-1.70619 176.587 -1.85248 160.891 8.1168 152.063L11.1376 149.386C22.6502 160.035 33.2558 164.563 50.8611 164.563C60.5671 164.563 65.3067 161.9 65.7602 158.433C66.6598 154.169 62.1469 151.243 44.7684 145.114C16.5574 134.991 3.01879 122.74 7.07818 97.974C11.1376 72.6741 35.2891 55.632 72.5258 55.632L72.5331 55.6466Z" fill="white"></path><path d="M217.837 109.977C219.871 97.9886 214.224 90.5354 202.039 90.5354C193.686 90.5354 186.013 94.529 182.181 101.456H166.631C153.655 101.456 146.751 85.8031 155.784 76.4848C168.24 63.641 186.328 55.6466 212.425 55.6466C256.435 55.6466 271.553 79.0814 265.687 115.038L258.241 160.05C257.341 165.645 259.821 167.774 265.014 167.774H269.754L267.574 181.122C265.797 191.998 256.405 199.985 245.383 200C226.424 200 214.239 196.54 209.046 183.492C195.054 194.675 179.028 200 162.776 200C136.372 200 118.54 183.492 123.279 155.259C127.792 127.026 150.817 112.917 177.222 112.917C189.407 112.917 204.533 116.113 215.811 122.235L217.845 109.984L217.837 109.977ZM211.518 148.596C207.678 143.534 198.652 141.406 189.626 141.406C178.794 141.406 168.861 146.204 167.508 155.252C165.928 164.307 174.281 169.097 185.114 169.097C194.139 169.097 204.299 166.435 209.492 161.11L211.525 148.596H211.518Z" fill="white"></path><path d="M306.961 2.38446H357.517L330.315 168.585C327.653 184.852 313.595 196.796 297.109 196.796H275.144L306.961 2.38446Z" fill="white"></path><path d="M370.646 99.0565H348.074L355.264 59.4646L377.185 58.8356L385.384 1.52869H434.506L427.734 58.8356H439.422C450.21 58.8356 458.439 68.505 456.705 79.1545L453.465 99.0492H421.195L414.422 140.594C411.935 155.508 416.001 159.501 434.28 159.501H443.532L441.199 173.267C439.041 186.008 429.065 195.97 416.331 198.186C410.743 199.159 404.811 199.715 398.85 199.715C371.092 199.715 356.647 183.47 362.286 148.844L370.639 99.0419L370.646 99.0565Z" fill="white"></path><path d="M474.983 54.7136H485.216C506.244 54.7136 522.16 73.7086 518.488 94.4079L499.947 198.84H449.391L474.976 54.7063L474.983 54.7136Z" fill="white"></path><path d="M535.808 54.4544H546.041C567.069 54.4544 582.985 73.4494 579.313 94.1486L560.772 198.581H510.216L535.801 54.4471L535.808 54.4544Z" fill="#15ADE4"></path><path d="M635.428 54.4543H647.189L621.604 198.588H571.048L589.853 92.6565C593.774 70.5603 612.981 54.4617 635.428 54.4617V54.4543Z" fill="#F28122"></path><path d="M501.98 50.2048C515.844 50.2048 527.083 38.9661 527.083 25.1024C527.083 11.2387 515.844 0 501.98 0C488.116 0 476.878 11.2387 476.878 25.1024C476.878 38.9661 488.116 50.2048 501.98 50.2048Z" fill="white"></path><path d="M563.771 50.2048C577.634 50.2048 588.873 38.9661 588.873 25.1024C588.873 11.2387 577.634 0 563.771 0C549.907 0 538.668 11.2387 538.668 25.1024C538.668 38.9661 549.907 50.2048 563.771 50.2048Z" fill="white"></path><path d="M624.793 50.2048C638.657 50.2048 649.896 38.9661 649.896 25.1024C649.896 11.2387 638.657 0 624.793 0C610.929 0 599.691 11.2387 599.691 25.1024C599.691 38.9661 610.929 50.2048 624.793 50.2048Z" fill="white"></path></svg> 