<?xml version="1.0" encoding="UTF-8"?> <svg xmlns="http://www.w3.org/2000/svg" width="650" height="201" viewBox="0 0 650 201" fill="none"><path d="M72.5331 56.0036C97.2917 56.0036 113.01 63.9103 120.551 78.8825C125.781 89.276 118.225 101.542 106.588 101.542H85.3915C84.4919 95.1493 79.7523 91.1558 71.3994 91.1558C63.9535 91.1558 58.7604 93.5548 58.0802 97.5484C57.4 101.542 61.9202 105.009 80.6519 111.665C109.09 121.788 121.048 132.971 117.216 157.203C113.156 181.706 88.5513 200.35 53.1212 200.35C34.0384 200.35 19.7757 194.776 8.54103 185.451C-1.70619 176.944 -1.85248 161.248 8.1168 152.42L11.1376 149.743C22.6502 160.392 33.2558 164.92 50.8611 164.92C60.5671 164.92 65.3067 162.257 65.7602 158.79C66.6598 154.526 62.1469 151.6 44.7684 145.471C16.5574 135.348 3.01879 123.097 7.07818 98.331C11.1376 73.0311 35.2891 55.989 72.5258 55.989L72.5331 56.0036Z" fill="black"></path><path d="M217.837 110.334C219.871 98.3456 214.224 90.8924 202.039 90.8924C193.686 90.8924 186.013 94.886 182.181 101.813H166.631C153.655 101.813 146.751 86.1602 155.784 76.8418C168.24 63.9981 186.328 56.0036 212.425 56.0036C256.435 56.0036 271.553 79.4384 265.687 115.395L258.241 160.407C257.341 166.002 259.821 168.131 265.014 168.131H269.754L267.574 181.479C265.797 192.355 256.405 200.342 245.383 200.357C226.424 200.357 214.239 196.897 209.046 183.849C195.054 195.032 179.028 200.357 162.776 200.357C136.372 200.357 118.54 183.849 123.279 155.616C127.792 127.383 150.817 113.274 177.222 113.274C189.407 113.274 204.533 116.47 215.811 122.592L217.845 110.341L217.837 110.334ZM211.518 148.953C207.678 143.891 198.652 141.763 189.626 141.763C178.794 141.763 168.861 146.561 167.508 155.609C165.928 164.664 174.281 169.454 185.114 169.454C194.139 169.454 204.299 166.792 209.492 161.467L211.525 148.953H211.518Z" fill="black"></path><path d="M306.961 2.74149H357.517L330.315 168.942C327.653 185.209 313.595 197.153 297.109 197.153H275.144L306.961 2.74149Z" fill="black"></path><path d="M370.646 99.4135H348.074L355.264 59.8216L377.185 59.1926L385.384 1.88572H434.506L427.734 59.1926H439.422C450.21 59.1926 458.439 68.862 456.705 79.5115L453.465 99.4062H421.195L414.422 140.951C411.935 155.865 416.001 159.858 434.28 159.858H443.532L441.199 173.624C439.041 186.365 429.065 196.327 416.331 198.543C410.743 199.516 404.811 200.072 398.85 200.072C371.092 200.072 356.647 183.827 362.286 149.201L370.639 99.3989L370.646 99.4135Z" fill="black"></path><path d="M474.983 55.0706H485.216C506.244 55.0706 522.16 74.0657 518.488 94.7649L499.947 199.197H449.391L474.976 55.0633L474.983 55.0706Z" fill="black"></path><path d="M535.808 54.8114H546.041C567.069 54.8114 582.985 73.8064 579.313 94.5057L560.772 198.938H510.216L535.801 54.8041L535.808 54.8114Z" fill="##15ade4"></path><path d="M635.428 54.8114H647.189L621.604 198.945H571.048L589.853 93.0136C593.774 70.9173 612.981 54.8187 635.428 54.8187V54.8114Z" fill="#F28122"></path><path d="M501.98 50.5618C515.844 50.5618 527.083 39.3231 527.083 25.4594C527.083 11.5958 515.844 0.357048 501.98 0.357048C488.116 0.357048 476.878 11.5958 476.878 25.4594C476.878 39.3231 488.116 50.5618 501.98 50.5618Z" fill="black"></path><path d="M563.771 50.5618C577.634 50.5618 588.873 39.3231 588.873 25.4594C588.873 11.5958 577.634 0.357048 563.771 0.357048C549.907 0.357048 538.668 11.5958 538.668 25.4594C538.668 39.3231 549.907 50.5618 563.771 50.5618Z" fill="black"></path><path d="M624.793 50.5618C638.657 50.5618 649.896 39.3231 649.896 25.4594C649.896 11.5958 638.657 0.357048 624.793 0.357048C610.929 0.357048 599.691 11.5958 599.691 25.4594C599.691 39.3231 610.929 50.5618 624.793 50.5618Z" fill="black"></path></svg> 